<svg width="36" height="46" viewBox="0 0 36 46" fill="none" xmlns="http://www.w3.org/2000/svg">
<path id="Vector" fill-rule="evenodd" clip-rule="evenodd" d="M17.5162 0C22.3521 0 26.7312 1.95296 29.8917 5.10044C33.0522 8.24792 35.0133 12.6089 35.0133 17.4249C35.0133 19.6812 34.5944 21.8238 33.8138 23.7957C32.5382 27.038 27.0168 35.3049 24.8463 38.0352C22.6568 40.8035 20.1817 43.4011 17.5352 45.866C14.9839 43.2494 12.6231 40.576 10.4907 37.8456C8.22498 34.9446 2.64646 27.2466 1.29467 23.9853C0.456943 21.9565 0 19.7381 0 17.4249C0 12.6089 1.96105 8.24792 5.12157 5.10044C8.28209 1.95296 12.6611 0 17.4971 0L17.5162 0ZM17.5162 7.16716C14.6793 7.16716 12.09 8.32376 10.2241 10.163C8.35825 12.0211 7.21589 14.5808 7.21589 17.4249C7.21589 20.269 8.37729 22.8287 10.2241 24.6869C12.09 26.545 14.6603 27.6827 17.5162 27.6827C20.372 27.6827 22.9424 26.5261 24.8082 24.6869C26.6741 22.8287 27.8164 20.269 27.8164 17.4249C27.8164 14.5808 26.655 12.0211 24.8082 10.163C22.9424 8.3048 20.372 7.16716 17.5162 7.16716Z" fill="#1D1D1B"/>
</svg>
