<svg width="210" height="33" viewBox="0 0 210 33" fill="none" xmlns="http://www.w3.org/2000/svg">
<g id="logo_safeko" clip-path="url(#clip0_3_1215)">
<path id="Vector" d="M65.6985 20.6661C65.6985 24.5529 62.7469 27.0755 57.676 27.0755C52.6052 27.0755 48.4352 24.4671 48.4352 19.9625H53.5404C53.5404 22.1162 55.4109 22.9141 57.676 22.9141C59.5723 22.9141 60.5933 22.1762 60.5933 21.1552C60.5933 19.5421 58.4139 19.1732 55.5482 18.3237C52.0646 17.3027 49.0015 15.8012 49.0015 12.0602C49.0015 7.6414 52.4593 5.9082 56.8266 5.9082C61.5629 5.9082 65.2695 8.40504 65.4154 12.5149H60.3102C60.0871 10.9877 58.7829 10.0782 56.8266 10.0782C55.2993 10.0782 54.1067 10.5587 54.1067 11.6912C54.1067 12.9354 55.3851 13.3386 57.9334 14.0422C61.7602 15.089 65.6985 16.3417 65.6985 20.6747V20.6661Z" fill="#181818"/>
<path id="Vector_2" d="M74.1671 14.7716C72.5197 14.7716 71.7303 15.3979 71.5844 16.7879H67.3287C67.4745 14.008 69.4565 11.657 74.1842 11.657C78.2684 11.657 80.5336 13.2443 80.5336 17.809V24.4672C80.5336 25.2308 80.8167 25.5483 81.383 25.5483V26.6294C80.4735 26.9726 79.6498 27.0842 78.7489 27.0842C76.7068 27.0842 76.1405 26.1232 76.1405 25.1021H76.0804C75.1452 26.1747 73.4463 27.0842 71.5158 27.0842C68.4527 27.0842 66.7538 25.351 66.7538 22.9142C66.7538 20.0227 68.8817 18.6927 72.2794 18.0149C74.1499 17.646 75.9946 17.3628 75.9946 16.1444C75.9946 15.295 75.4026 14.7802 74.1499 14.7802L74.1671 14.7716ZM76.0118 21.3183V19.5593C75.4455 19.7824 74.7334 19.9883 73.6866 20.2114C71.9019 20.6061 71.3099 21.344 71.3099 22.2535C71.3099 23.4462 72.022 23.9524 73.1203 23.9524C75.0766 23.9524 76.0118 22.7083 76.0118 21.3183Z" fill="#181818"/>
<path id="Vector_3" d="M89.0195 11.4855V12.1119H91.542V15.5096H89.0195V26.621H84.4805V15.5096H82.3269V12.1119H84.4805V11.1166C84.4805 7.85611 85.4158 6.09717 88.7363 6.09717C90.0148 6.09717 90.7183 6.20871 91.542 6.38031V9.77807C89.6115 9.77807 89.0195 9.77807 89.0195 11.4769V11.4855Z" fill="#181818"/>
<path id="Vector_4" d="M102.173 22.2278H106.677C105.879 25.1451 103.614 27.0756 99.676 27.0756C94.8539 27.0756 91.9366 23.9009 91.9366 19.362C91.9366 14.8231 94.8024 11.6484 99.4186 11.6484C104.378 11.6484 106.9 15.2779 106.9 20.5461H96.467C96.467 22.5882 97.9685 23.6607 99.5816 23.6607C101.195 23.6607 101.881 22.9228 102.164 22.2106L102.173 22.2278ZM96.4756 17.809H102.37C102.37 15.7927 101.152 14.7802 99.4186 14.7802C97.6854 14.7802 96.467 15.8012 96.467 17.809H96.4756Z" fill="#181818"/>
<path id="Vector_5" d="M112.992 6.35449V17.0111L117.248 12.1032H122.662L117.531 17.5431L123.254 26.6123H117.866L114.434 20.8293L112.984 22.3308V26.6123H108.445V6.35449H112.984H112.992Z" fill="#181818"/>
<path id="Vector_6" d="M130.307 27.0756C125.459 27.0756 122.542 23.8752 122.542 19.362C122.542 14.8488 125.459 11.6484 130.307 11.6484C135.155 11.6484 138.047 14.8488 138.047 19.362C138.047 23.8752 135.129 27.0756 130.307 27.0756ZM130.307 23.6779C132.289 23.6779 133.508 22.1763 133.508 19.3706C133.508 16.5649 132.289 15.0634 130.307 15.0634C128.325 15.0634 127.073 16.5649 127.073 19.3706C127.073 22.1763 128.291 23.6779 130.307 23.6779Z" fill="#181818"/>
<path id="Vector_7" d="M150.771 28.1824V32.0692H138.416V28.1824H150.771Z" fill="#181818"/>
<path id="Vector_8" d="M158.416 17.0455C156.588 17.0455 155.421 18.1523 155.421 19.8254V26.621H153.294V11.0908H155.421V16.9339H155.464C156.048 16.0845 157.206 15.2179 159.111 15.2179C161.153 15.2179 162.8 16.3934 162.8 18.9331V26.621H160.673V19.5166C160.673 18.0408 160.02 17.0369 158.416 17.0369V17.0455Z" fill="#181818"/>
<path id="Vector_9" d="M164.525 21.0867C164.525 17.6375 166.61 15.2007 170.085 15.2007C173.56 15.2007 175.602 17.6117 175.602 21.0609C175.602 24.5102 173.517 26.947 170.059 26.947C166.601 26.947 164.516 24.5617 164.516 21.0867H164.525ZM170.085 25.188C172.342 25.188 173.388 23.3862 173.388 21.0867C173.388 18.7872 172.35 16.9854 170.085 16.9854C167.82 16.9854 166.739 18.77 166.739 21.0867C166.739 23.4033 167.777 25.188 170.085 25.188Z" fill="#181818"/>
<path id="Vector_10" d="M177.327 23.2146V15.5439H179.455V22.6226C179.455 24.1241 180.107 25.1194 181.711 25.1194C183.539 25.1194 184.706 24.0126 184.706 22.3395V15.5439H186.834V26.621H184.706V25.231H184.663C184.079 26.0804 182.921 26.9213 181.016 26.9213C178.974 26.9213 177.327 25.7458 177.327 23.206V23.2146Z" fill="#181818"/>
<path id="Vector_11" d="M188.49 22.9313H190.643C190.729 24.2098 191.51 25.2137 193.578 25.2137C195.448 25.2137 195.946 24.39 195.946 23.5834C195.946 22.1934 194.47 22.039 193.037 21.7387C191.106 21.2839 188.893 20.7176 188.893 18.4181C188.893 16.5048 190.437 15.2263 193.106 15.2263C196.143 15.2263 197.602 16.8566 197.756 18.7699H195.602C195.448 17.9205 194.993 16.9424 193.149 16.9424C191.716 16.9424 191.106 17.5086 191.106 18.3323C191.106 19.4821 192.342 19.5936 193.912 19.9368C195.954 20.4173 198.168 21.0008 198.168 23.4805C198.168 25.6341 196.521 26.9297 193.603 26.9297C190.24 26.9297 188.567 25.1879 188.498 22.9313H188.49Z" fill="#181818"/>
<path id="Vector_12" d="M199.266 21.0609C199.266 17.586 201.351 15.2007 204.74 15.2007C208.13 15.2007 210 17.4144 210 20.8464C210 21.1468 210 21.4728 209.974 21.653H201.463C201.506 23.4977 202.595 25.2138 204.783 25.2138C206.74 25.2138 207.495 23.9525 207.692 23.2146H209.863C209.279 25.3425 207.649 26.947 204.74 26.947C201.223 26.947 199.266 24.4501 199.266 21.0609ZM207.778 19.9713C207.778 18.2295 206.559 16.9339 204.672 16.9339C202.887 16.9339 201.591 18.1523 201.454 19.9713H207.778Z" fill="#181818"/>
<path id="Vector_13" d="M5.14811 0.00512695H35.1788V8.16488H0V5.15324C0 2.3132 2.30807 0.00512695 5.14811 0.00512695Z" fill="#181818"/>
<path id="Vector_14" d="M35.1788 24.4758H0V32.6356H35.1788V24.4758Z" fill="#181818"/>
<path id="Vector_15" d="M0 8.16479V12.4892C0 14.823 1.35567 16.9509 3.47497 17.9376L17.5894 24.4843V16.3245L0 8.16479Z" fill="#181818"/>
<path id="Vector_16" d="M17.5894 8.16479V16.316L35.1787 24.4757V16.316L17.5894 8.16479Z" fill="#181818"/>
</g>
<defs>
<clipPath id="clip0_3_1215">
<rect width="210" height="32.6407" fill="white"/>
</clipPath>
</defs>
</svg>
